# xmcd
#
# Track frame offsets:
#	150
#	10492
#	22455
#	33908
#	44594
#	53769
#	64136
#	77648
#	89817
#	100322
#	110209
#	120202
#	133146
#	143200
#	151531
#	163007
#	172133
#	184860
#	196302
#	207303
#
# Disc length: 2926
#
# Revision: 1
# Processed by: cddbd v1.5.1PL0 Copyright (c) Steve Scherf et al.
# Submitted via: ExactAudioCopy v0.95a3
# Normalized: r0:TDELIM( - )
#
DISCID=240b6c14
DTITLE=Various Artist - The Core Of Rockabilly Vol. 1
DYEAR=1999
DGENRE=Country
TTITLE0=Blue Suede Shoes - Carl Perkins
TTITLE1=Cadillac Man - The Jesters
TTITLE2=Shotgun Boogie - Sleepy La Beef
TTITLE3=Gonna Romp and Stomp - Slim Rhodes
TTITLE4=Luther Played the Boogie - Johnny Cash and The Tennessee Two
TTITLE5=Huh  Babe - Luke McDaniel
TTITLE6=Feelin' Good - Little Junior's Blue Flames
TTITLE7=Drinkin' Wine - Gene Simmons
TTITLE8=Rockin' With My Baby - Malcolm Yelvington
TTITLE9=Devil Doll - Roy Orbison and The Roses
TTITLE10=Get Rhythm - Johnny Cash and The Tennessee Two
TTITLE11=Honey Don't - Carl Perkins
TTITLE12=Ooby Dooby - Roy Orbison and The Teen Kings
TTITLE13=Crawdad Hole - Jerry Lee Lewis
TTITLE14=Do What I Do - Slim Rhodes
TTITLE15=Ubangi Stomp - Warren Smith
TTITLE16=Boppin' The Blues - Carl Perkins
TTITLE17=Boogie Woogie Country Girl - Sleepy La Beef
TTITLE18=We Wanna Boogie - Sonny Burgess
TTITLE19=Red Cadillac and a Black Moustache - Warren Smith
EXTD=
EXTT0=
EXTT1=
EXTT2=
EXTT3=
EXTT4=
EXTT5=
EXTT6=
EXTT7=
EXTT8=
EXTT9=
EXTT10=
EXTT11=
EXTT12=
EXTT13=
EXTT14=
EXTT15=
EXTT16=
EXTT17=
EXTT18=
EXTT19=
PLAYORDER=
